<svg width="42" height="12" viewBox="0 0 42 12" fill="none" xmlns="http://www.w3.org/2000/svg">
<path d="M0.000484467 8.69922V0.0952187H3.25248C4.18048 0.0952187 4.87248 0.315218 5.32848 0.755218C5.79248 1.19522 6.02448 1.79922 6.02448 2.56722C6.02448 3.32722 5.80048 3.93522 5.35248 4.39122C4.91248 4.83922 4.27248 5.06322 3.43248 5.06322H1.17648V8.69922H0.000484467ZM1.17648 3.98322H3.30048C3.77248 3.98322 4.14448 3.86322 4.41648 3.62322C4.68848 3.38322 4.82448 3.03522 4.82448 2.57922C4.82448 2.13922 4.68848 1.79522 4.41648 1.54722C4.15248 1.29922 3.80048 1.17522 3.36048 1.17522H1.17648V3.98322ZM7.11677 8.69922V2.50722H8.14877V3.29922H8.17277C8.54877 2.69122 9.12877 2.38722 9.91277 2.38722H10.3688V3.40722H9.80477C9.38077 3.40722 9.00477 3.57522 8.67677 3.91122C8.35677 4.23922 8.19677 4.71122 8.19677 5.32722V8.69922H7.11677ZM13.5829 8.85522C12.6789 8.85522 11.9749 8.55522 11.4709 7.95522C10.9749 7.35522 10.7269 6.58722 10.7269 5.65122C10.7269 4.65922 10.9909 3.86322 11.5189 3.26322C12.0469 2.65522 12.7309 2.35122 13.5709 2.35122C14.3949 2.35122 15.0629 2.63522 15.5749 3.20322C16.0869 3.77122 16.3429 4.51122 16.3429 5.42322C16.3429 5.60722 16.3349 5.78722 16.3189 5.96322H11.8069C11.8709 6.52322 12.0549 6.97922 12.3589 7.33122C12.6709 7.67522 13.0869 7.84722 13.6069 7.84722C13.9749 7.84722 14.2949 7.76322 14.5669 7.59522C14.8389 7.41922 15.0229 7.16722 15.1189 6.83922H16.1869C16.0989 7.47122 15.8189 7.96722 15.3469 8.32722C14.8749 8.67922 14.2869 8.85522 13.5829 8.85522ZM11.8189 5.02722H15.2749C15.2509 4.58722 15.0909 4.19922 14.7949 3.86322C14.4989 3.52722 14.0909 3.35922 13.5709 3.35922C13.1069 3.35922 12.7189 3.50322 12.4069 3.79122C12.0949 4.07922 11.8989 4.49122 11.8189 5.02722ZM19.6294 8.85522C18.9174 8.85522 18.3214 8.68722 17.8414 8.35122C17.3614 8.00722 17.1214 7.47922 17.1214 6.76722H18.2254C18.2814 7.50322 18.7774 7.87122 19.7134 7.87122C20.5454 7.87122 20.9614 7.60322 20.9614 7.06722C20.9614 6.69922 20.6894 6.43522 20.1454 6.27522L18.7534 5.86722C17.8014 5.58722 17.3254 5.01922 17.3254 4.16322C17.3254 3.59522 17.5214 3.15122 17.9134 2.83122C18.3054 2.51122 18.8534 2.35122 19.5574 2.35122C20.2534 2.35122 20.8214 2.51122 21.2614 2.83122C21.7014 3.15122 21.9254 3.65922 21.9334 4.35522H20.8294C20.8134 4.01122 20.6854 3.75522 20.4454 3.58722C20.2134 3.41922 19.9054 3.33522 19.5214 3.33522C19.1774 3.33522 18.9054 3.40322 18.7054 3.53922C18.5054 3.66722 18.4054 3.85122 18.4054 4.09122C18.4054 4.47522 18.6574 4.74322 19.1614 4.89522L20.5534 5.29122C21.5454 5.57922 22.0414 6.15522 22.0414 7.01922C22.0414 7.65122 21.8134 8.11522 21.3574 8.41122C20.9094 8.70722 20.3334 8.85522 19.6294 8.85522ZM25.0707 8.69922C24.5667 8.69922 24.1787 8.60322 23.9067 8.41122C23.6427 8.21122 23.5107 7.83922 23.5107 7.29522V3.49122H22.3947V2.50722H23.5107V0.755218H24.5907V2.50722H26.1147V3.49122H24.5907V7.05522C24.5907 7.32722 24.6467 7.51122 24.7587 7.60722C24.8707 7.69522 25.0667 7.73922 25.3467 7.73922H26.1147V8.69922H25.0707ZM27.2035 8.69922V2.50722H28.2835V8.69922H27.2035ZM27.2395 1.23522C27.0955 1.09122 27.0235 0.919218 27.0235 0.719218C27.0235 0.519218 27.0955 0.351218 27.2395 0.215219C27.3835 0.0712185 27.5515 -0.000781536 27.7435 -0.000781536C27.9435 -0.000781536 28.1155 0.0712185 28.2595 0.215219C28.4035 0.351218 28.4755 0.519218 28.4755 0.719218C28.4755 0.919218 28.4035 1.09122 28.2595 1.23522C28.1235 1.37122 27.9515 1.43922 27.7435 1.43922C27.5515 1.43922 27.3835 1.37122 27.2395 1.23522ZM30.364 11.2552V10.2472H32.512C33.048 10.2472 33.432 10.1352 33.664 9.91122C33.904 9.68722 34.024 9.28322 34.024 8.69922V7.89522H34C33.832 8.19922 33.588 8.43522 33.268 8.60322C32.948 8.77122 32.584 8.85522 32.176 8.85522C31.392 8.85522 30.756 8.55522 30.268 7.95522C29.78 7.34722 29.536 6.55922 29.536 5.59122C29.536 4.63122 29.772 3.85122 30.244 3.25122C30.724 2.65122 31.36 2.35122 32.152 2.35122C32.944 2.35122 33.572 2.67922 34.036 3.33522H34.06V2.50722H35.092V8.69922C35.092 9.59522 34.888 10.2432 34.48 10.6432C34.08 11.0512 33.48 11.2552 32.68 11.2552H30.364ZM30.616 5.59122C30.616 6.25522 30.772 6.79922 31.084 7.22322C31.396 7.63922 31.816 7.84722 32.344 7.84722C32.848 7.84722 33.256 7.65122 33.568 7.25922C33.88 6.86722 34.036 6.31122 34.036 5.59122C34.036 4.86322 33.88 4.31122 33.568 3.93522C33.256 3.55122 32.848 3.35922 32.344 3.35922C31.808 3.35922 31.384 3.56722 31.072 3.98322C30.768 4.39922 30.616 4.93522 30.616 5.59122ZM39.1977 8.85522C38.2937 8.85522 37.5897 8.55522 37.0857 7.95522C36.5897 7.35522 36.3417 6.58722 36.3417 5.65122C36.3417 4.65922 36.6057 3.86322 37.1337 3.26322C37.6617 2.65522 38.3457 2.35122 39.1857 2.35122C40.0097 2.35122 40.6777 2.63522 41.1897 3.20322C41.7017 3.77122 41.9577 4.51122 41.9577 5.42322C41.9577 5.60722 41.9497 5.78722 41.9337 5.96322H37.4217C37.4857 6.52322 37.6697 6.97922 37.9737 7.33122C38.2857 7.67522 38.7017 7.84722 39.2217 7.84722C39.5897 7.84722 39.9097 7.76322 40.1817 7.59522C40.4537 7.41922 40.6377 7.16722 40.7337 6.83922H41.8017C41.7137 7.47122 41.4337 7.96722 40.9617 8.32722C40.4897 8.67922 39.9017 8.85522 39.1977 8.85522ZM37.4337 5.02722H40.8897C40.8657 4.58722 40.7057 4.19922 40.4097 3.86322C40.1137 3.52722 39.7057 3.35922 39.1857 3.35922C38.7217 3.35922 38.3337 3.50322 38.0217 3.79122C37.7097 4.07922 37.5137 4.49122 37.4337 5.02722Z" fill="black"/>
</svg>
